<?xml version="1.0" encoding="UTF-8" standalone="no"?>
<!-- Generator: Adobe Illustrator 16.0.0, SVG Export Plug-In . SVG Version: 6.00 Build 0)  -->

<svg
   xmlns:dc="http://purl.org/dc/elements/1.1/"
   xmlns:cc="http://creativecommons.org/ns#"
   xmlns:rdf="http://www.w3.org/1999/02/22-rdf-syntax-ns#"
   xmlns:svg="http://www.w3.org/2000/svg"
   xmlns="http://www.w3.org/2000/svg"
   xmlns:xlink="http://www.w3.org/1999/xlink"
   xmlns:sodipodi="http://sodipodi.sourceforge.net/DTD/sodipodi-0.dtd"
   xmlns:inkscape="http://www.inkscape.org/namespaces/inkscape"
   version="1.1"
   x="0px"
   y="0px"
   width="1134.381px"
   height="1024.449px"
   viewBox="0 0 1134.381 1024.449"
   enable-background="new 0 0 1134.381 1024.449"
   xml:space="preserve"
   id="svg2"
   inkscape:version="0.91 r13725"
   sodipodi:docname="Jhsu8s-map.blade.svg"><metadata
     id="metadata216"><rdf:RDF><cc:Work
         rdf:about=""><dc:format>image/svg+xml</dc:format><dc:type
           rdf:resource="http://purl.org/dc/dcmitype/StillImage" /></cc:Work></rdf:RDF></metadata><defs
     id="defs214" /><sodipodi:namedview
     pagecolor="#ffffff"
     bordercolor="#666666"
     borderopacity="1"
     objecttolerance="10"
     gridtolerance="10"
     guidetolerance="10"
     inkscape:pageopacity="0"
     inkscape:pageshadow="2"
     inkscape:window-width="1267"
     inkscape:window-height="701"
     id="namedview212"
     showgrid="false"
     inkscape:zoom="1"
     inkscape:cx="420.19049"
     inkscape:cy="672.22449"
     inkscape:window-x="108"
     inkscape:window-y="28"
     inkscape:window-maximized="0"
     inkscape:current-layer="fields" /><g
     id="Layer_1"
     display="none"><image
       sodipodi:absref="/Volumes/FeedblooDisk/ShowCase/crossover/expo-now/doc/svg/1E7AAC27.jpg"
       xlink:href="1E7AAC27.jpg"
       id="image5"
       transform="matrix(1 0 0 1 -50.6187 -54.6162)"
       height="1146"
       width="1233"
       overflow="visible"
       display="inline" /></g><g
     id="parking"><polygon
       id="park_lac"
       fill="#AE9AE8"
       fill-opacity="0.25"
       stroke="#000000"
       stroke-width="2"
       points="896.469,705.534    942.097,741.484 982.969,690.373 978.612,686.857 983.344,680.73 873.211,590.807 864.133,603.995 862.723,611.352    870.398,691.147 875.993,691.347  " /><g
       id="Layer_32"><polygon
         fill="#AE9AE8"
         fill-opacity="0.25"
         stroke="#000000"
         stroke-width="2"
         points="656.873,841.134 653.452,836.717     729.873,779.51 763.174,823.533 685.609,880.942 650.018,850.875   "
         id="polygon10" /></g><g
       id="Layer_33"><path
         fill="#AE9AE8"
         fill-opacity="0.25"
         stroke="#000000"
         stroke-width="2"
         d="M633.76,823.93c0,0-20.778,18.066-52.976,11.547    l4.505-19.126l63.887-49.568l21.275,26.008L633.76,823.93z"
         id="path13" /></g><g
       id="Layer_34"><polygon
         fill="#AE9AE8"
         fill-opacity="0.25"
         stroke="#000000"
         stroke-width="2"
         points="677.103,767.441 683.196,763.344     691.202,764.912 697.903,774.691 688.328,781.131 685.137,776.573 683.862,777.686   "
         id="polygon16" /></g><g
       id="Layer_35"><rect
         x="667.937"
         y="702.604"
         transform="matrix(0.8194 -0.5732 0.5732 0.8194 -282.9609 519.9311)"
         fill="#AE9AE8"
         fill-opacity="0.25"
         stroke="#000000"
         stroke-width="2"
         width="31.377"
         height="12.814"
         id="rect19" /></g><g
       id="Layer_36"><path
         fill="#AE9AE8"
         fill-opacity="0.25"
         stroke="#000000"
         stroke-width="2"
         d="M769.24,627.129l-10.357-91.468l17.642-27.162    l-26.428-17.164l-35.042,53.955l14.313,9.298l23.942-7.936l10.406,81.179c0.069,0.43,5.498,41.753-10.866,60.688l5.316,5.168    C778.608,665.957,770.861,641.636,769.24,627.129z"
         id="path22" /></g><g
       id="Layer_37"><rect
         x="680.747"
         y="572.985"
         transform="matrix(0.5842 -0.8116 0.8116 0.5842 -179.7786 811.7657)"
         fill="#AE9AE8"
         fill-opacity="0.25"
         stroke="#000000"
         stroke-width="2"
         width="43.21"
         height="16.705"
         id="rect25" /><path
         fill="#D6CBF3"
         fill-opacity="0.25"
         stroke="#000000"
         stroke-width="2"
         d="M784.714,389.877l-5.833-7.5l-28,25.667    c0,0-5.092,4.833-6.765,12.833c-1.254,5.996-2.735,23.833-2.735,23.833v3.5h9l2.667-24.801c0,0,2.166-8.866,7.833-12.699    L784.714,389.877z"
         id="path27" /></g><g
       id="Layer_38"><path
         fill="#AE9AE8"
         fill-opacity="0.25"
         stroke="#000000"
         stroke-width="2"
         d="M801.895,309.971l-5.298,6.97l-24.755-20.715    c0,0-4.369-3.196-7.042-0.458c-2.672,2.737-5.077,6.618-5.077,6.618s-5.734,7.675-14.518-0.21l-3.984,4.855l-30.097-25.491    l42.135-49.074l33.977,27.895l5.404,10.186L801.895,309.971z"
         id="path30" /></g><g
       id="Layer_39"><path
         fill="#AE9AE8"
         fill-opacity="0.25"
         stroke="#000000"
         stroke-width="2"
         d="M678.239,220.559l18.097,17.623l-13.716,14.287    l-18.291-17.944l-17.04,17.513c0,0-1.416,1.406-1.154,3.292c0.26,1.887,1.75,2.336,1.75,2.336l19.88,18.876l-56.472,57.992    l-28.336-27.592l84.796-87.08c0,0,0.816-1.962,4.754-1.989C676.443,217.846,678.239,220.559,678.239,220.559z"
         id="path33" /></g><g
       id="Layer_40"><rect
         x="335.066"
         y="203.534"
         transform="matrix(-0.54 0.8417 -0.8417 -0.54 814.2863 -25.9659)"
         fill="#AE9AE8"
         fill-opacity="0.25"
         stroke="#000000"
         stroke-width="2"
         stroke-linecap="round"
         stroke-linejoin="round"
         stroke-miterlimit="10"
         width="158.345"
         height="12.017"
         id="rect36" /><rect
         x="344.279"
         y="265.484"
         transform="matrix(-0.54 0.8417 -0.8417 -0.54 778.1565 131.0872)"
         fill="#AE9AE8"
         fill-opacity="0.25"
         stroke="#000000"
         stroke-width="2"
         stroke-linecap="round"
         stroke-linejoin="round"
         stroke-miterlimit="10"
         width="17.951"
         height="25.423"
         id="rect38" /><rect
         x="372.904"
         y="333.584"
         transform="matrix(-0.54 0.8417 -0.8417 -0.54 904.0057 193.5601)"
         fill="#AE9AE8"
         fill-opacity="0.25"
         stroke="#000000"
         stroke-width="2"
         stroke-linecap="round"
         stroke-linejoin="round"
         stroke-miterlimit="10"
         width="52.407"
         height="20.481"
         id="rect40" /><rect
         x="378.861"
         y="230.454"
         transform="matrix(-0.54 0.8417 -0.8417 -0.54 884.0323 44.0369)"
         fill="#AE9AE8"
         fill-opacity="0.25"
         stroke="#000000"
         stroke-width="2"
         stroke-linecap="round"
         stroke-linejoin="round"
         stroke-miterlimit="10"
         width="102.242"
         height="66.3"
         id="rect42" /><rect
         x="453.147"
         y="400.25"
         transform="matrix(-0.5484 0.8362 -0.8362 -0.5484 1090.467 327.6003)"
         fill="#AE9AE8"
         fill-opacity="0.25"
         stroke="#000000"
         stroke-width="2"
         stroke-linecap="round"
         stroke-linejoin="round"
         stroke-miterlimit="10"
         width="7.255"
         height="116"
         id="rect44" /><polygon
         fill="#AE9AE8"
         fill-opacity="0.25"
         stroke="#000000"
         stroke-width="2"
         stroke-linecap="round"
         stroke-linejoin="round"
         stroke-miterlimit="10"
         points="    478.334,497.893 468.004,513.646 470.647,515.379 472.185,512.988 477.749,516.413 478.737,514.874 483.03,517.633     490.149,505.641   "
         id="polygon46" /><rect
         x="571.208"
         y="595.853"
         transform="matrix(-0.6572 0.7537 -0.7537 -0.6572 1413.6406 554.8981)"
         fill="#AE9AE8"
         fill-opacity="0.25"
         stroke="#000000"
         stroke-width="2"
         width="18.849"
         height="6.136"
         id="rect48" /><rect
         x="501.112"
         y="512.605"
         transform="matrix(0.5483 -0.8363 0.8363 0.5483 -203.641 654.9626)"
         fill="#AE9AE8"
         fill-opacity="0.25"
         stroke="#000000"
         stroke-width="2"
         width="6.794"
         height="6.792"
         id="rect50" /><polygon
         fill="#AE9AE8"
         fill-opacity="0.25"
         stroke="#000000"
         stroke-width="2"
         points="517.535,552.915 507.829,566.031     511.512,572.667 521.216,559.551   "
         id="polygon52" /></g><g
       id="Layer_41"><rect
         x="331.31"
         y="536.557"
         transform="matrix(0.5212 -0.8534 0.8534 0.5212 -317.5469 571.981)"
         fill="#AE9AE8"
         fill-opacity="0.25"
         stroke="#000000"
         stroke-width="2"
         stroke-linecap="round"
         stroke-linejoin="round"
         stroke-miterlimit="10"
         width="39.333"
         height="64.863"
         id="rect55" /><polygon
         fill="#AE9AE8"
         fill-opacity="0.25"
         stroke="#000000"
         stroke-width="2"
         stroke-linecap="round"
         stroke-linejoin="round"
         stroke-miterlimit="10"
         points="    422.829,572.22 417.792,569.143 410.088,581.759 420.199,587.932 426.206,578.094 421.114,574.915   "
         id="polygon57" /><path
         fill="#AE9AE8"
         fill-opacity="0.25"
         stroke="#000000"
         stroke-width="2"
         d="M348.262,525.414c0,0,3.011,2.948,6.273,1.241    c3.263-1.709,0.088-4.388-1.544-3.534c-1.629,0.854-0.836-3.473-0.836-3.473l32.468-51.957l7.051-1.244l6.198,3.785l-3.786,6.198    c0,0-2.783,2.742,1.26,5.211c4.042,2.469,10.404-0.678,10.404-0.678l22.91,13.99c0,0,2.576,3.052,1.363,5.643    c-1.211,2.59-20.512,39.648-35.76,57.347l-4.043-2.469c0,0-2.754-0.942-4.07,1.214c-1.316,2.155,0.24,3.848,0.24,3.848    l-1.586,1.991l-37.731-23.041l-0.932-5.748c0,0,0.015-1.843-1.333-2.665L348.262,525.414z"
         id="path59" /></g><g
       id="Layer_42"
       display="none"><path
         display="inline"
         fill="#AE9AE8"
         stroke="#000000"
         stroke-width="2"
         stroke-linecap="round"
         stroke-linejoin="round"
         stroke-miterlimit="10"
         d="    M456.657,757.824l-10.202-1.401l-4.021,5.874l0.292,14.401l4.6,3.655c0,0,4.365-5.636,6.565-5.146    c2.2,0.491,5.092,1.455,5.092,1.455l3.073-4.491c0,0-7.382-4.038-2.526-11.875L456.657,757.824z"
         id="path62" /></g><g
       id="Layer_43"><rect
         x="118.264"
         y="640.861"
         transform="matrix(-0.5454 0.8382 -0.8382 -0.5454 774.6475 868.0294)"
         fill="#AE9AE8"
         fill-opacity="0.25"
         stroke="#000000"
         stroke-width="2"
         stroke-linecap="round"
         stroke-linejoin="round"
         stroke-miterlimit="10"
         width="67.349"
         height="6.432"
         id="rect65" /><polygon
         fill="#AE9AE8"
         fill-opacity="0.25"
         stroke="#000000"
         stroke-width="2"
         stroke-linecap="round"
         stroke-linejoin="round"
         stroke-miterlimit="10"
         points="    127.741,663.773 119.048,677.717 111.215,672.217 106.21,678.82 101.735,675.977 114.738,655.512   "
         id="polygon67" /><rect
         x="108.094"
         y="719.917"
         transform="matrix(0.5363 -0.844 0.844 0.5363 -566.8253 460.1663)"
         fill="#AE9AE8"
         fill-opacity="0.25"
         stroke="#000000"
         stroke-width="2"
         stroke-linecap="round"
         stroke-linejoin="round"
         stroke-miterlimit="10"
         width="54.55"
         height="52.028"
         id="rect69" /><path
         fill="#AE9AE8"
         fill-opacity="0.25"
         stroke="#000000"
         stroke-width="2"
         stroke-linecap="round"
         stroke-linejoin="round"
         stroke-miterlimit="10"
         d="    M273.332,814.324l4.578,2.459l9.55-13.111l1.476-2.025l18.288,11.731l-1.386,2.521l13.174,6.972l12.768-21.174l7.254,4.147l0,0    l-1.191,1.938l1.163,1.632l0,0l-24.47,36.634l0,0l-2.466,3.727l-62.928-38.642l-4.26-3.083l14.93-23.968l5.285,3.188l-9.08,16.451    l4.467,2.656l0.296,0.215c0,0-2.755,6.728,2.22,9.784C269.59,820.426,272.616,814.306,273.332,814.324z"
         id="path71" /></g><g
       id="Layer_44"><rect
         x="286.983"
         y="713.571"
         transform="matrix(0.493 -0.87 0.87 0.493 -487.1929 621.9853)"
         fill="#AE9AE8"
         fill-opacity="0.25"
         stroke="#000000"
         stroke-width="2"
         stroke-linecap="round"
         stroke-linejoin="round"
         stroke-miterlimit="10"
         width="6.235"
         height="30.919"
         id="rect74" /><path
         fill="#AE9AE8"
         fill-opacity="0.25"
         stroke="#000000"
         stroke-width="2"
         d="M308.964,665.548    c0.076-0.133,0.132-0.278,0.167-0.427c0.163-0.686,3.82-16.88-8.396-23.803c-7.665-4.343-11.087-3.407-11.696-3.175l1.083,3.061    c0.026-0.007,2.653-0.663,9.012,2.94c9.427,5.341,7.233,18.243,6.879,20.022c-0.244,0.432-15.096,26.642-15.29,26.984    c-0.258,0.271-4.12,4.328-4.12,4.328l2.352,2.239l4.258-4.473c0.092-0.098,0.171-0.204,0.237-0.321L308.964,665.548z"
         id="path76" /><rect
         x="479.458"
         y="942.206"
         transform="matrix(-0.5394 0.8421 -0.8421 -0.5394 1545.3337 1049.3741)"
         fill="#AE9AE8"
         fill-opacity="0.25"
         stroke="#000000"
         stroke-width="2"
         stroke-linecap="round"
         stroke-linejoin="round"
         stroke-miterlimit="10"
         width="12.408"
         height="10.263"
         id="rect78" /><polygon
         fill="#AE9AE8"
         fill-opacity="0.25"
         stroke="#000000"
         stroke-width="2"
         stroke-linecap="round"
         stroke-linejoin="round"
         stroke-miterlimit="10"
         points="    402.806,864.472 406.63,863.042 409.821,865.087 400.939,878.954 388.612,871.055 395.732,859.941   "
         id="polygon80" /></g><g
       id="park_swartz"><path
         fill="#AE9AE8"
         fill-opacity="0.25"
         stroke="#000000"
         stroke-width="2"
         stroke-linecap="round"
         stroke-linejoin="round"
         stroke-miterlimit="10"
         d="    M597.548,680.884l13.667,16.877l-3.525,3.05l7.858,12.406h3.167l21.833,34l-11.833,8.5l-35-45.333c0,0,9.5-13-8.5-13.5    l-4.431-5.833L597.548,680.884z"
         id="path83" /></g></g><g
     id="academic_bldgs"><g
       id="mcgowan"><polygon
         fill="#DE807A"
         fill-opacity="0.25"
         stroke="#000000"
         stroke-width="2"
         stroke-linecap="round"
         stroke-linejoin="round"
         stroke-miterlimit="10"
         points="    378.713,402.76 388.968,387.354 384.325,384.262 385.455,382.563 376.694,376.568 375.676,378.343 369.559,374.271     371.443,371.438 371.784,371.666 379.287,360.148 375.963,357.773 400.246,322.277 399.903,322.05 401.563,319.558     402.471,320.162 402.846,319.597 391.819,312.093 391.443,312.66 392.01,313.037 390.276,315.642 389.936,315.416     388.955,316.889 386.463,315.23 387.143,314.211 384.989,312.778 384.31,313.798 381.705,312.063 382.76,310.477 382.42,310.25     384.003,307.871 384.646,308.135 385.023,307.57 374.036,300.256 373.659,300.821 374.564,301.425 372.905,303.917     372.642,303.577 370.491,306.56 366.948,311.885 359.51,306.605 357.021,310.344 332.172,293.642 336.849,286.618     328.844,281.944 313.613,304.337 314.066,304.639 304.753,318.384 304.526,318.234 296.307,330.582 304.238,335.859     305.896,333.367 312.881,338.342 309.074,343.819 311.831,345.817 306.438,353.671 306.137,354.124 335.629,373.918     337.663,370.859 341.026,372.933 341.515,371.951 343.932,373.722 343.403,374.516 345.557,375.95 346.198,375.231 348.69,376.89     348.161,377.683 351.257,379.908 349.223,382.966   "
         id="polygon87" /></g><g
       id="healthy_fam"><polygon
         fill="#DE807A"
         fill-opacity="0.25"
         stroke="#000000"
         stroke-width="2"
         stroke-linecap="round"
         stroke-linejoin="round"
         stroke-miterlimit="10"
         points="    715.366,636.425 715.566,623.896 711.445,623.756 735.263,592.319 720.11,580.908 692.961,616.67 702.243,623.622     701.961,636.265 692.548,642.902 718.462,679.593 733.94,668.592 711.163,636.396   "
         id="polygon90" /></g><g
       id="athletics_wellness"><polygon
         fill="#DE807A"
         fill-opacity="0.25"
         stroke="#000000"
         stroke-width="2"
         stroke-linecap="round"
         stroke-linejoin="round"
         stroke-miterlimit="10"
         points="    813.348,718.96 792.358,725.234 783.665,696.037 784.349,695.717 782.595,689.992 780.438,690.408 779.356,686.232     783.134,685.038 782.057,675.547 781.124,675.541 776.882,632.149 771.582,632.285 770.796,623.474 776.154,622.961     775.648,616.953 810.204,613.555 809.506,606.543 849.022,602.583 854.22,657.007 856.162,656.913 859.667,693.079     862.973,692.813 863.565,700.257 860.438,700.483 860.976,705.23 816.724,709.356 816.39,706.156 809.811,706.862   "
         id="polygon93" /></g><g
       id="swartz"><polygon
         fill="#DE807A"
         fill-opacity="0.25"
         stroke="#000000"
         stroke-width="2"
         stroke-linecap="round"
         stroke-linejoin="round"
         stroke-miterlimit="10"
         points="    606.363,670.41 606.685,670.161 607.554,666.575 610.443,664.35 614.065,664.932 618.203,662.001 621.384,666.458     619.208,668.083 630.8,683.917 653.016,667.659 637.007,645.763 648.24,637.563 666.937,663.277 670.074,660.907 679.794,674.243     665.171,684.954 661.143,679.461 638.999,695.611 651.58,712.731 652.292,712.129 660.633,723.611 668.977,717.64     675.409,726.448 686.5,718.463 686.467,718.283 692.779,713.726 702.213,726.563 695.903,731.122 695.546,730.729     689.238,735.288 691.746,738.676 675.983,750.163 677.715,752.409 670.122,757.958 666.304,752.61 663.558,754.623     653.979,741.536 655.048,740.865 652.541,737.477 627.694,703.453 615.891,712.043 607.69,700.811 619.066,692.4 617.054,689.652     617.944,689.017 612.643,681.741 610.29,683.401 606.12,677.663   "
         id="polygon96" /></g><g
       id="vac_arch"><polyline
         fill="#DE807A"
         fill-opacity="0.25"
         stroke="#000000"
         stroke-width="2"
         stroke-linecap="round"
         stroke-linejoin="round"
         stroke-miterlimit="10"
         points="    465.332,698.242 482.007,673.08 484.722,674.866 490.428,666.146 538.064,697.41 535.931,700.705 558.797,715.688     552.604,725.221 590.476,750.154 587.854,754.26 591.729,756.74 582.775,766.666 580.642,765.228 579.483,766.898     578.856,766.363 577.696,765.668 576.931,765.366 576.351,765.019 575.701,764.787 574.936,764.486 574.217,764.371     573.567,764.138 572.85,764.022 572.13,763.905 571.34,763.905 570.74,763.859 569.951,763.859 569.278,763.929 568.488,763.929     567.561,764.16 566.889,764.229 566.216,764.298 565.473,764.486 564.801,764.556 564.059,764.74 563.433,764.994     562.736,765.366 562.111,765.62 561.486,765.877 560.789,766.247 560.209,766.688 559.629,767.129 559.05,767.569 558.4,768.127     557.193,769.611 555.337,768.497 554.017,770.7 555.455,771.72 553.09,775.662 542.049,768.565 541.214,769.956 531.612,763.881     532.378,762.605 496.454,739.154 495.434,740.593 487.061,735.096 487.687,734.053 483.7,731.501 486.645,727.117 487.99,727.767     490.472,723.896 464.333,706.475 468.578,700.189 465.517,698.196   "
         id="polyline99" /></g><g
       id="insalaco"><polygon
         fill="#DE807A"
         fill-opacity="0.25"
         stroke="#000000"
         stroke-width="2"
         stroke-linecap="round"
         stroke-linejoin="round"
         stroke-miterlimit="10"
         points="    550.09,806.561 549.633,807.563 549.75,807.635 548.551,810.105 548.434,810.032 546.493,813.975 546.727,814.116     545.984,815.584 550.693,817.838 550.549,818.071 556.608,820.995 547.235,840.411 536.468,835.23 536.11,835.813     535.921,835.857 534.054,839.68 534.286,839.823 532.416,843.646 532.183,843.501 530.243,847.439 530.475,847.583     528.677,851.288 528.374,851.263 526.621,855.157 526.737,855.228 524.867,859.051 524.751,858.979 522.81,862.916     523.042,863.06 521.245,866.766 521.011,866.62 519.072,870.559 519.304,870.703 518.847,871.706 502.44,863.701 502.485,863.89     495.772,860.725 498.339,855.244 498.643,855.271 500.512,851.448 498.624,850.61 499.081,849.605 498.775,849.579     499.975,847.108 497.387,845.84 497.316,845.955 496.967,845.739 498.264,842.849 496.796,842.106 498.353,839.057     497.654,838.625 498.227,837.693 498.602,837.603 498.7,837.186 498.824,836.459 504.246,825.037 504.835,824.599     505.194,824.017 504.988,823.57 505.874,821.87 506.455,822.228 511.106,812.577 510.802,812.55 512.958,808.262 513.306,808.479     513.279,808.783 517.638,810.821 518.766,808.468 518.999,808.609 521.252,803.904 522.908,804.599 524.492,801.243     524.725,801.388 525.395,800.035 525.163,799.894 527.345,795.301 533.987,798.582 533.916,798.7   "
         id="polygon102" /></g><g
       id="science"><polygon
         fill="#DE807A"
         fill-opacity="0.25"
         stroke="#000000"
         stroke-width="2"
         stroke-linecap="round"
         stroke-linejoin="round"
         stroke-miterlimit="10"
         points="    488.363,921.854 493.85,925.41 495.457,923.043 496.018,923.424 503.17,912.148 502.607,911.767 506.661,905.301 526.205,917.729     522.151,924.194 521.398,923.851 514.324,935.012 514.887,935.395 504.826,951.446 485.284,939.017 486.088,937.587     477.594,932.157 476.789,933.586 462.168,924.331 454.796,929.864 447.543,925.273 449.197,916.524 434.35,907.115     435.192,905.876 432.373,903.965 441.971,889.083 462.079,901.895 463.226,900.202 470.706,904.944 469.558,906.638     489.78,919.522   "
         id="polygon105" /></g><g
       id="immaculata"><polygon
         fill="#DE807A"
         fill-opacity="0.25"
         stroke="#000000"
         stroke-width="2"
         stroke-linecap="round"
         stroke-linejoin="round"
         stroke-miterlimit="10"
         points="    337.842,807.783 340.188,803.984 366.98,820.367 360.352,831.367 345.599,822.582 330.811,846.257 345.536,855.353     338.431,866.058 320.929,855.083 319.389,857.575 315.854,855.067 317.103,853.048 312.069,849.775 314.535,846.049     315.677,846.588 339.193,808.782   "
         id="polygon108" /></g><g
       id="LAC"><polygon
         fill="#DE807A"
         fill-opacity="0.25"
         stroke="#000000"
         stroke-width="2"
         stroke-linecap="round"
         stroke-linejoin="round"
         stroke-miterlimit="10"
         points="    247.825,744.048 231.88,770.488 236.049,773.002 235.69,773.597 244.385,778.84 246.181,775.862 265.116,787.282 263.32,790.259     263.917,790.618 256.017,803.722 260.78,806.593 260.493,807.07 260.396,807.497 260.227,808.046 260.132,808.477     259.963,809.022 259.867,809.452 259.819,810.074 259.841,810.572 259.863,811.075 260.006,811.646 260.101,812.03 260.242,812.6     260.454,813.055 260.669,813.51 260.833,813.773 261.049,814.225 261.261,814.679 261.547,815.015 261.951,815.42     262.237,815.754 262.715,816.042 263,816.377 263.476,816.664 263.906,816.762 264.381,817.048 264.812,817.145 265.359,817.314     265.907,817.48 266.336,817.576 266.837,817.554 267.337,817.531 267.768,817.628 268.34,817.484 268.723,817.392     269.223,817.369 269.676,817.154 270.131,816.941 270.584,816.728 270.918,816.442 271.182,816.277 271.561,816.182     271.897,815.896 272.232,815.61 272.494,815.444 272.828,815.16 273.332,814.324 278.24,816.96 286.115,804.168 286.949,804.671     288.936,801.646 307.514,812.85 305.838,815.899 314.652,821.215 315.129,820.691 319.012,822.871 334.813,796.668     330.718,794.038 331.22,793.203 322.526,787.961 320.467,791.104 302.174,779.424 308.877,768.849 284.676,754.577     277.977,764.342 260.447,753.284 260.715,750.685 252.616,745.801 252.042,746.753   "
         id="polygon111" /><polygon
         fill="none"
         stroke="#000000"
         stroke-width="2"
         stroke-linecap="round"
         stroke-linejoin="round"
         stroke-miterlimit="10"
         points="    277.553,793.321 279.84,794.376 282.298,794.883 284.919,794.84 287.283,794.155 289.549,793.085 291.486,791.491     293.019,789.492 294.072,787.203 294.578,784.748 294.537,782.126 293.97,779.833 292.783,777.495 291.188,775.557     289.188,774.029 286.901,772.972 284.445,772.467 281.941,772.579 279.531,773.077 277.19,774.261 275.256,775.855     273.725,777.856 272.67,780.145 272.163,782.601 272.277,785.105 272.892,787.586 273.959,789.855 275.553,791.792   "
         id="polygon113" /></g><g
       id="pac"><polygon
         fill="#DE807A"
         fill-opacity="0.25"
         stroke="#000000"
         stroke-width="2"
         stroke-linecap="round"
         stroke-linejoin="round"
         stroke-miterlimit="10"
         points="    162.594,725.465 162.077,725.762 137.004,709.051 134.723,712.474 124.563,705.701 128.833,699.296 126.513,697.75     138.844,679.011 140.168,679.894 181.244,618.264 192.401,625.699 153.567,684.2 178.714,701.276 183.794,704.663     179.966,710.407 182.176,711.88 179.123,719.096 173.637,724.69 171.318,723.146 167.564,728.777   "
         id="polygon116" /></g><g
       id="library"
       display="none"><polyline
         display="inline"
         fill="#DE807A"
         stroke="#000000"
         stroke-width="2"
         stroke-linecap="round"
         stroke-linejoin="round"
         stroke-miterlimit="10"
         points="    463.678,737.456 451.546,755.969 441.126,753.717 436.526,761.13 441.823,768.672 436.286,772.401 437.6,778.91 443.815,779.978     441.714,790.657 434.979,789.406 431.713,794.323 435.407,800.155 426.786,805.864 422.834,800.662 416.661,801.716     415.369,808.265 404.577,806.09 404.648,804.528 396.901,798.737 395.304,799.933 389.185,790.718 394.239,787.472     393.149,781.111 386.821,779.485 388.736,769.326 395.25,770.431 398.774,765.365 394.968,759.457 404.036,753.562     407.84,758.987 413.791,757.786 415.265,751.2 424.234,752.967 429.021,746.002 423.498,736.377 435.444,718.386 441.623,719.752     442.469,714.84 455.312,719.021 464.333,729.682 460.506,732.291 463.751,737.346   "
         id="polyline119" /></g><g
       id="learning_commons"><polygon
         fill="#DE807A"
         fill-opacity="0.25"
         stroke="#000000"
         stroke-width="2"
         stroke-miterlimit="10"
         points="379.788,780.354     382.91,774.748 384.899,775.527 437.791,693.468 422.455,683.716 419.933,687.586 410.169,681.438 398.583,700.043     396.171,699.882 390.856,712.608 367.505,748.192 368.331,748.894 366.046,751.648 364.985,750.607 355.223,766.105     367.708,775.019 371.634,769.468 373.177,770.541 373.951,768.654 379.084,771.584 374.97,777.092   "
         id="polygon122" /></g><g
       id="sr_anns_house"><rect
         x="101.388"
         y="770.541"
         transform="matrix(0.8412 0.5408 -0.5408 0.8412 442.4484 64.2511)"
         fill="#DE807A"
         fill-opacity="0.25"
         stroke="#000000"
         stroke-width="2"
         stroke-linecap="round"
         stroke-linejoin="round"
         stroke-miterlimit="10"
         width="20.914"
         height="29.597"
         id="rect125" /></g></g><g
     id="residence"><g
       id="woodlands"><rect
         x="356.298"
         y="230.787"
         transform="matrix(0.529 -0.8487 0.8487 0.529 -30.1115 418.6693)"
         fill="#DE807A"
         fill-opacity="0.25"
         stroke="#000000"
         stroke-width="2"
         stroke-linecap="round"
         stroke-linejoin="round"
         stroke-miterlimit="10"
         width="11.579"
         height="11.345"
         id="rect129" /><polygon
         fill="#DE807A"
         fill-opacity="0.25"
         stroke="#000000"
         stroke-width="2"
         stroke-linecap="round"
         stroke-linejoin="round"
         stroke-miterlimit="10"
         points="    358.108,259.695 365.722,247.479 351.889,239.001 344.377,251.28   "
         id="polygon131" /><polygon
         fill="#DE807A"
         fill-opacity="0.25"
         stroke="#000000"
         stroke-width="2"
         stroke-linecap="round"
         stroke-linejoin="round"
         stroke-miterlimit="10"
         points="    380.768,222.645 367.348,214.426 359.838,226.707 373.257,234.926   "
         id="polygon133" /><rect
         x="371.818"
         y="205.328"
         transform="matrix(0.5289 -0.8487 0.8487 0.5289 -1.8863 420.1348)"
         fill="#DE807A"
         fill-opacity="0.25"
         stroke="#000000"
         stroke-width="2"
         stroke-linecap="round"
         stroke-linejoin="round"
         stroke-miterlimit="10"
         width="11.317"
         height="12.876"
         id="rect135" /><polygon
         fill="#DE807A"
         fill-opacity="0.25"
         stroke="#000000"
         stroke-width="2"
         stroke-linecap="round"
         stroke-linejoin="round"
         stroke-miterlimit="10"
         points="    396.022,197.942 382.81,189.851 375.26,201.964 388.575,210.118   "
         id="polygon137" /><polygon
         fill="#DE807A"
         fill-opacity="0.25"
         stroke="#000000"
         stroke-width="2"
         stroke-linecap="round"
         stroke-linejoin="round"
         stroke-miterlimit="10"
         points="    403.75,185.705 410.393,175.05 409.106,174.248 415.711,163.651 413.455,162.245 416.197,157.845 407.256,152.273     404.515,156.672 402.258,155.266 395.653,165.864 396.938,166.665 390.297,177.319 388.868,176.429 382.316,186.94     395.685,195.273 402.237,184.761   "
         id="polygon139" /><polygon
         fill="#DE807A"
         fill-opacity="0.25"
         stroke="#000000"
         stroke-width="2"
         stroke-linecap="round"
         stroke-linejoin="round"
         stroke-miterlimit="10"
         points="    429.212,147.823 440.155,130.265 441.584,131.156 448.136,120.644 432.927,111.164 426.375,121.677 424.861,120.732     413.917,138.29 415.203,139.091 408.599,149.688 423.893,159.221 430.498,148.623   "
         id="polygon141" /><polygon
         fill="#DE807A"
         fill-opacity="0.25"
         stroke="#000000"
         stroke-width="2"
         stroke-linecap="round"
         stroke-linejoin="round"
         stroke-miterlimit="10"
         points="    464.922,184.058 465.879,182.499 456.653,176.833 455.84,178.155 450.271,174.736 440.599,190.485 446.167,193.906     446.98,192.582 456.206,198.25 455.303,199.72 460.827,203.112 470.446,187.45   "
         id="polygon143" /></g><g
       id="regina"><polygon
         fill="#DE807A"
         fill-opacity="0.25"
         stroke="#000000"
         stroke-width="2"
         stroke-linecap="round"
         stroke-linejoin="round"
         stroke-miterlimit="10"
         points="    212.612,718.613 185.627,760.082 217.467,780.967 244.571,739.572   "
         id="polygon146" /></g><g
       id="madonna"><polygon
         fill="#DE807A"
         fill-opacity="0.25"
         stroke="#000000"
         stroke-width="2"
         stroke-linecap="round"
         stroke-linejoin="round"
         stroke-miterlimit="10"
         points="    568.787,576.974 538.15,609.528 536.054,607.426 528.464,618.051 531.337,619.506 512.131,659.7 492.741,650.664 512.223,609.819     513.329,610.909 523.702,595.964 522.482,594.797 553.12,562.24   "
         id="polygon149" /></g><polygon
       id="pep"
       fill="#DE807A"
       fill-opacity="0.25"
       stroke="#000000"
       stroke-width="2"
       stroke-linecap="round"
       stroke-linejoin="round"
       stroke-miterlimit="10"
       points="   392.424,875.397 382.615,889.875 371.981,882.617 380.641,869.729 382.942,871.321 384.093,869.731  " /><polygon
       id="mccaerty"
       fill="#DE807A"
       fill-opacity="0.25"
       stroke="#000000"
       stroke-width="2"
       stroke-linecap="round"
       stroke-linejoin="round"
       stroke-miterlimit="10"
       points="   376.612,865.427 371.017,873.498 361.415,866.734 369.076,855.809 374.229,859.429 372.194,862.434  " /><g
       id="emmanuel"><polygon
         fill="#DE807A"
         fill-opacity="0.25"
         stroke="#000000"
         stroke-width="2"
         stroke-linecap="round"
         stroke-linejoin="round"
         stroke-miterlimit="10"
         points="    613.545,614.066 608.294,608.839 609.103,608.179 601.75,600.963 598.625,604.194 590.534,596.285 577.841,609.241     587.098,618.482 591.275,614.243 592.168,615.216 587.068,620.03 584.917,624.114 582.428,621.681 569.913,639.642     580.136,646.243 592.125,628.788 588.273,625.058 590.129,621.642 594.388,617.284 597.23,619.962 599.781,617.554     608.612,626.151 613.153,621.639   "
         id="polygon154" /></g></g><g
     id="services"><g
       id="nazareth"><polyline
         fill="#DE807A"
         fill-opacity="0.25"
         stroke="#000000"
         stroke-width="2"
         stroke-linecap="round"
         stroke-linejoin="round"
         stroke-miterlimit="10"
         points="    420.894,557.979 438.759,529.708 440.149,530.445 443.258,525.611 446.115,527.447 455.755,512.212 467.804,519.803     472.185,512.988 477.749,516.413 478.737,514.874 485.331,519.112 484.13,520.979 500.684,531.469 485.958,554.615     478.376,549.741 478.024,550.289 479.012,550.924 480.041,551.742 481.029,552.377 481.985,553.304 482.906,554.05     483.752,554.905 484.671,555.651 485.3,556.366 485.927,557.079 486.554,557.793 487.111,558.62 487.741,559.333 488.187,560.086     488.674,561.021 489.082,561.595 484.922,564.198 484.584,563.517 484.246,562.834 483.838,562.26 483.32,561.616     482.803,560.973 482.394,560.399 481.696,559.795 480,558.086 478.195,556.302 476.908,555.164 469.146,550.329 451.938,576.852     470.44,588.901 468.036,592.638 456.168,585.01 453.697,588.854 460.95,593.517 450.069,610.44 440.837,604.506 437.244,608.406     431.647,603.101 433.695,599.914 421.348,591.821 432.017,575.226 432.896,575.791 434.451,573.374 429.945,570.478     432.983,565.752 420.784,557.909   "
         id="polyline158" /></g><g
       id="vrc"><polygon
         fill="#DE807A"
         fill-opacity="0.25"
         stroke="#000000"
         stroke-width="2"
         stroke-linecap="round"
         stroke-linejoin="round"
         stroke-miterlimit="10"
         points="    96.209,676.771 81.356,666.696 88.425,656.323 93.632,659.951 92.144,662.041 95.713,664.471 96.438,663.331 98.871,665.038     99.78,663.856 104.604,667.081 100.976,672.288 101.773,672.795 99.2,676.592 97.221,675.178   "
         id="polygon161" /></g><g
       id="dominano"><polygon
         fill="#DE807A"
         fill-opacity="0.25"
         stroke="#000000"
         stroke-width="2"
         stroke-linecap="round"
         stroke-linejoin="round"
         stroke-miterlimit="10"
         points="    864.698,744.592 856.268,758.108 848.13,752.856 849.596,750.678 842.562,746.255 841.125,748.627 833.098,743.46     841.528,729.944   "
         id="polygon164" /></g><g
       id="friccioni"><polygon
         fill="#DE807A"
         fill-opacity="0.25"
         stroke="#000000"
         stroke-width="2"
         stroke-linecap="round"
         stroke-linejoin="round"
         stroke-miterlimit="10"
         points="    920.82,764.851 911.062,782.301 901.388,777.036 906.027,768.553 900.594,765.608 899.011,768.249 894.657,765.856     896.13,763.142 890.364,759.976 885.872,768.233 876.496,763.005 882.499,752.216 881.977,752.03 883.303,749.539     883.973,749.982 884.747,748.567 884.003,748.236 885.033,746.191 886.038,746.854 887.584,744.026 896.625,749.035     895.705,750.671 902.774,754.537 903.105,753.794 905.077,754.937 904.673,755.791   "
         id="polygon167" /></g><g
       id="mail"><polygon
         fill="#DE807A"
         fill-opacity="0.25"
         stroke="#000000"
         stroke-width="2"
         stroke-linecap="round"
         stroke-linejoin="round"
         stroke-miterlimit="10"
         points="    390.629,865.702 379.1,858.103 385.369,849.475 376.685,842.894 380.739,837.647 388.998,843.66 389.574,842.83 392.827,845.229     392.124,846.24 400.54,852.226 397.009,857.698 396.549,857.379   "
         id="polygon170" /></g><g
       id="alumni"><rect
         x="422.823"
         y="865.586"
         transform="matrix(-0.8376 -0.5463 0.5463 -0.8376 320.2278 1839.5906)"
         fill="#DE807A"
         fill-opacity="0.25"
         stroke="#000000"
         stroke-width="2"
         stroke-linecap="round"
         stroke-linejoin="round"
         stroke-miterlimit="10"
         width="21.426"
         height="13.225"
         id="rect173" /></g><g
       id="arch"><rect
         x="251.158"
         y="647.924"
         transform="matrix(0.5321 -0.8467 0.8467 0.5321 -430.0864 520.2875)"
         fill="#DE807A"
         fill-opacity="0.25"
         stroke="#000000"
         stroke-linecap="round"
         stroke-linejoin="round"
         stroke-miterlimit="10"
         width="9.082"
         height="2.701"
         id="rect176" /><rect
         x="249.698"
         y="655.237"
         transform="matrix(0.8467 0.5321 -0.5321 0.8467 387.9404 -32.8962)"
         fill="#DE807A"
         fill-opacity="0.25"
         stroke="#000000"
         stroke-linecap="round"
         stroke-linejoin="round"
         stroke-miterlimit="10"
         width="2.701"
         height="2.873"
         id="rect178" /><rect
         x="258.912"
         y="640.525"
         transform="matrix(0.5322 -0.8466 0.8466 0.5322 -421.6376 520.7104)"
         fill="#DE807A"
         fill-opacity="0.25"
         stroke="#000000"
         stroke-linecap="round"
         stroke-linejoin="round"
         stroke-miterlimit="10"
         width="2.871"
         height="2.701"
         id="rect180" /></g><g
       id="maint_powerplant"><polygon
         fill="#DE807A"
         fill-opacity="0.25"
         stroke="#000000"
         stroke-width="2"
         stroke-linecap="round"
         stroke-linejoin="round"
         stroke-miterlimit="10"
         points="    697.5,528.959 733.739,478.238 749.692,489.481 713.487,540.403   "
         id="polygon183" /><polygon
         fill="#DE807A"
         fill-opacity="0.25"
         stroke="#000000"
         stroke-width="2"
         stroke-linecap="round"
         stroke-linejoin="round"
         stroke-miterlimit="10"
         points="    706.614,556.194 686.916,583.827 671.286,572.634 690.982,545   "
         id="polygon185" /></g></g><g
     id="ihm"><g
       id="our_lady_peace"><polygon
         fill="#DC807A"
         fill-opacity="0.25"
         stroke="#000000"
         stroke-width="2"
         points="908.752,938.4 898.575,931.219     906.811,918.067 904.178,916.683 906.602,911.738 902.668,908.67 905.764,903.405 909.381,905.804 917.394,892.869     920.686,894.598 927.112,883.519 923.497,881.121 931.768,866.307 928.48,864.249 929.516,862.271 926.591,858.886     920.031,853.769 913.45,849.982 906.857,846.859 902.551,845.777 901.181,847.749 897.89,846.023 894.427,852.944     897.715,855.002 894.969,859.274 890.685,857.195 886.896,863.779 870.119,853.803 865.309,861.697 881.743,872.33     878.281,879.254 881.556,881.975 879.816,885.931 875.853,884.195 871.724,891.436 873.695,892.803 872.321,894.774     863.1,889.938 857.656,896.153 852.071,909.69 863.592,916.234 795.348,917.912 795.75,931.564 799.743,931.642 800.023,934.304     854.957,932.705 829.149,976.794 838.347,982.959 840.728,980.343 846.325,983.449 870.013,945.638 894.771,990.368     900.83,986.828 902.446,989.189 911.542,983.371 886.081,940.627 891.827,936.074 904.628,944.977   "
         id="polygon189" /></g><g
       id="ihm_center"><polygon
         fill="#DC807A"
         fill-opacity="0.25"
         stroke="#000000"
         stroke-width="2"
         points="1060.533,983.709 1067.598,989.288     1051.604,1008.186 1053.497,1010.58 1045.468,1020.86 1042.93,1018.108 1026.887,1038.327 1020.787,1033.447 1019.027,1036.028     1010.391,1028.397 1026.412,1008.833 982.795,973.307 967.86,990.594 986.731,1007.243 978.757,1016.2 976.192,1014.107     971.006,1019.529 940.285,992.801 967.109,959.761 956.846,951.403 968.696,936.646 979.954,945.042 1003.946,916.53     1006.934,916.32 1009.301,915.088 1011.313,914.506 1013.267,915.246 1016.18,917.019 1018.083,919.085 1019.009,920.776     1018.943,922.431 1018.531,924.398 1017.791,926.359 1018.043,928.353 994.698,957.226 1038.906,994.435 1055.935,974.583     1062.335,980.136   "
         id="polygon192" /></g></g><g
     id="fields"><line
       fill="none"
       stroke="#FFFFFF"
       stroke-width="1.875"
       stroke-linecap="round"
       stroke-linejoin="round"
       stroke-miterlimit="10"
       x1="535.571"
       y1="227.52"
       x2="549.515"
       y2="221.203"
       id="line195" /><polygon
       fill="none"
       stroke="#FFFFFF"
       stroke-width="1.875"
       stroke-linecap="round"
       stroke-linejoin="round"
       stroke-miterlimit="10"
       points="   539.771,225.648 541.002,228.388 550.749,223.942 549.515,221.203  "
       id="polygon197" /><a
       id="a4357"
       xlink:href="#"><g
         style="fill:#00fa00;fill-opacity:1"
         inkscape:label="#g4354"
         id="path_2_8"><path
           style="fill:#00fa00;fill-opacity:1"
           fill="#8FCD9B"
           fill-opacity="0.25"
           stroke="#000000"
           stroke-width="2"
           stroke-linecap="round"
           stroke-linejoin="round"
           stroke-miterlimit="10"
           d="   M609.325,162.843c0,0,5.791-62.393-51.187-85.799c-57.189-23.497-101.173,31.907-101.173,31.907l46.768,103.941L609.325,162.843z"
           id="path199" /></g></a><a
       id="a4369"
       xlink:href="#"><g
         style="fill:#00fa00;fill-opacity:1"
         inkscape:label="#g3544"
         id="path_2_5"><rect
           style="fill:#00fa00;fill-opacity:1"
           x="774.364"
           y="427.575"
           transform="matrix(-0.9932 0.1168 -0.1168 -0.9932 1678.4921 877.0623)"
           fill="#8FCD9B"
           fill-opacity="0.25"
           stroke="#000000"
           stroke-width="2"
           stroke-linecap="round"
           stroke-linejoin="round"
           stroke-miterlimit="10"
           width="78.367"
           height="120.272"
           id="rect201" /><rect
           style="fill:#00fa00;fill-opacity:1"
           x="767.058"
           y="552.631"
           transform="matrix(-0.995 0.0997 -0.0997 -0.995 1687.3788 1061.021)"
           fill="#8FCD9B"
           fill-opacity="0.25"
           stroke="#000000"
           stroke-width="2"
           stroke-linecap="round"
           stroke-linejoin="round"
           stroke-miterlimit="10"
           width="100.246"
           height="40.073"
           id="rect203" /></g></a><a
       id="a4365"
       xlink:href="#"><g
         style="fill:#00fa00;fill-opacity:1"
         inkscape:label="#g4348"
         id="path_2_6"><path
           style="fill:#00fa00;fill-opacity:1"
           fill="#8FCD9B"
           fill-opacity="0.25"
           stroke="#000000"
           stroke-width="2"
           stroke-linecap="round"
           stroke-linejoin="round"
           stroke-miterlimit="10"
           d="   M774.196,365.498c0,0-5.923-34.521-40.518-40.318c-34.726-5.82-50.727,29.532-50.727,29.532l40.742,50.687L774.196,365.498z"
           id="path205" /></g></a><a
       id="a4361"
       xlink:href="#"><g
         style="fill:#00fa00;fill-opacity:1"
         inkscape:label="#g4351"
         id="path_2_7"><rect
           style="fill:#00fa00;fill-opacity:1"
           x="681.914"
           y="10.154"
           transform="matrix(-0.9998 -0.021 0.021 -0.9998 1455.0608 173.7559)"
           fill="#8FCD9B"
           fill-opacity="0.25"
           stroke="#000000"
           stroke-width="2"
           stroke-linecap="round"
           stroke-linejoin="round"
           stroke-miterlimit="10"
           width="93.054"
           height="138.199"
           id="rect207" /></g></a></g><g
     id="border"><path
       fill="none"
       stroke="#000000"
       stroke-width="10"
       stroke-linecap="round"
       stroke-linejoin="round"
       stroke-miterlimit="10"
       d="   M416.197,106.995l-144.034,238.83l114.659,79.585l-142.25,216.531l-115.022-67.273L6.569,748.801L6.506,789.74l110.125,71.394   l49.374-80.702l300.501,190.845l108.716,40.519l68.253,9.645l93.081-0.009l335.891,0.019l53.613-87.249l0.535-42.004l-0.115-69.146   l-0.477-42.955c0,0-51.762-41.271-69.303-53.144c-17.596-11.91-35.12-23.929-52.759-35.775   c-15.121-10.253-30.283-36.885-42.503-51.79c-15.577-18.998-30.912-38.274-44.403-58.832   c-28.759-43.824-41.348-91.937-54.751-142.047c-5.553-20.758-13.173-41.144-17.192-62.277c-6.109-32.121-3.753-64.746-2.804-97.195   C845.082,183.597,858.881,101.593,881.958,9h-396.47L416.197,106.995z"
       id="path210" /></g></svg>